<svg width="461" height="80" viewBox="0 0 461 80" fill="none" xmlns="http://www.w3.org/2000/svg">
<g clip-path="url(#clip0_722_1226)">
<path d="M0 25.7842V54.1877C0 58.3255 2.21142 62.1485 5.80044 64.2164L30.4523 78.4209C34.0413 80.4889 38.4623 80.4889 42.0514 78.4209L66.7032 64.2164C70.2922 62.1485 72.5036 58.3255 72.5036 54.1877V25.7842C72.5036 21.6464 70.2922 17.8235 66.7032 15.7555L42.0532 1.55099C38.4641 -0.516995 34.0431 -0.516995 30.4541 1.55099L5.80044 15.7555C2.21142 17.8235 0 21.6464 0 25.7842Z" fill="url(#paint0_linear_722_1226)"/>
<path d="M51.1595 57.419L19.2136 40.4034V23.9449C19.2136 22.8487 20.3791 22.1481 21.3452 22.6635L53.2911 39.6792V56.1376C53.2911 57.2339 52.1256 57.9345 51.1595 57.419Z" fill="white"/>
<path d="M23.2013 57.5916H20.6636C19.8625 57.5916 19.2136 56.9418 19.2136 56.1396V42.5833L23.2013 44.7069V57.5916Z" fill="white"/>
<path d="M49.3042 22.4909H51.8419C52.643 22.4909 53.2919 23.1406 53.2919 23.9429V37.4991L49.3042 35.3756V22.4909Z" fill="white"/>
</g>
<g clip-path="url(#clip1_722_1226)">
<path d="M195.75 26.271L201.85 50.711L205.69 37.131L208.87 26.271H216.55L220.16 39.361L223.2 50.901L229.45 26.271H234.87C234.87 26.271 234.93 26.311 234.92 26.341L226.37 57.571H220.24L212.54 31.131L204.64 57.571H198.56L190.16 26.341C190.16 26.341 190.18 26.271 190.21 26.271H195.75Z" fill="#2D343D"/>
<path d="M297.79 22.801V43.121L308.89 32.841H316.05H316.08C316.08 32.841 316.09 32.851 316.1 32.871C316.1 32.881 316.1 32.891 316.1 32.901C316.1 32.901 316.1 32.911 316.08 32.931L304.6 43.711L304.83 43.981L316.24 57.491C316.24 57.491 316.25 57.511 316.25 57.521C316.25 57.521 316.25 57.541 316.25 57.551C316.25 57.561 316.24 57.571 316.23 57.571H316.2L309.47 57.581L300.75 47.411L300.47 47.651L297.92 49.841L297.79 49.951V57.571H292.51V22.801H297.79Z" fill="#2D343D"/>
<path fill-rule="evenodd" clip-rule="evenodd" d="M255.62 32.691C259.91 32.691 263.58 35.491 263.59 39.361V51.071C263.25 53.691 261.84 55.761 259.44 56.761C258.31 57.231 257.02 57.581 255.71 57.571H255.55H244.08C241.92 57.571 239.82 56.601 238.45 55.031C237.24 53.651 236.73 51.801 236.75 49.921L236.84 39.401C236.87 35.521 240.72 32.671 245.13 32.681H255.63L255.62 32.691ZM245.53 37.011C243.7 37.011 242.05 38.601 242.04 40.481L241.99 49.681C241.99 51.481 243.37 53.271 245.38 53.271H255.06C257.17 53.171 258.42 51.341 258.41 49.521L258.37 40.431C258.37 38.651 256.79 37.041 255 37.031L245.52 37.001L245.53 37.011Z" fill="#2D343D"/>
<path d="M287.5 32.841C287.5 32.841 287.55 32.861 287.55 32.891V36.991L278.97 37.011C278.07 37.011 277.16 37.251 276.47 37.821C275.77 38.401 275.33 39.291 275.33 40.501V41.401V57.571H270.11C270.11 57.571 270.06 57.551 270.06 57.521L270.09 39.631C270.09 35.571 273.84 32.821 278.17 32.831H287.5V32.841Z" fill="#2D343D"/>
<path d="M178.43 58.051L167.86 40.291H167.14V58.731H161.45V40.291H160.74L150.04 58.051H144.41C144.08 58.051 143.87 57.681 144.04 57.401L154.49 40.291H143.65V35.281H161.45L161.47 20.891L167.14 20.921V35.271H184.78V40.281H174.16L184.4 57.391C184.57 57.671 184.37 58.041 184.03 58.041H178.43V58.051Z" fill="#2D343D"/>
<path d="M175.98 21.871L170.89 32.491C170.75 32.771 170.96 33.101 171.27 33.101H176.33L181.64 22.481C181.78 22.201 181.58 21.861 181.26 21.861H175.98V21.871Z" fill="#2D343D"/>
<path d="M152.29 33.111L147.14 22.491C147 22.211 147.21 21.871 147.53 21.881L152.81 21.901L157.68 32.501C157.81 32.781 157.6 33.101 157.29 33.101H152.29V33.111Z" fill="#2D343D"/>
<path d="M129.99 48.941L126.03 41.441L121.85 48.941H119.56V43.951L123.45 36.791V30.541H117.95V58.771H112.96V29.461C112.97 27.621 114.62 26.111 116.31 26.101L123.46 26.041V20.901H128.5V26.041H137.82C138.2 26.041 138.67 26.481 138.67 26.901V54.351C138.67 56.821 136.6 58.751 134.26 58.761H129.12V54.371L132.68 54.301C133.13 54.301 133.58 53.641 133.58 53.171V48.961L130.01 48.941H129.99ZM133.56 45.851V30.541H128.49V36.851L133.56 45.851Z" fill="#2D343D"/>
<path d="M97 37.521V33.821L104.77 20.901H109.59C109.93 20.901 110.13 21.271 109.95 21.551L102.71 33.321L109.93 32.911C110.17 32.911 110.36 33.101 110.36 33.341C110.36 33.891 110.37 35.751 110.36 36.141L103.82 43.971L110.36 42.751V46.651L97.48 48.941V45.071L103.96 36.971L97 37.521Z" fill="#2D343D"/>
<path d="M110.37 55.501L97 58.091V53.371L110.36 51.311V55.511L110.37 55.501Z" fill="#2D343D"/>
<path d="M366 38.5798H358.66L349.634 29.8109H337.71L329.663 38.5798H322L333.459 26.3262C334.54 25.1783 335.428 24.651 337.064 24.651H349.684C352.027 24.651 352.774 24.9819 353.935 26.1814L366 38.5901V38.5798ZM361.648 53.4703C363.052 53.4703 363.516 53.9046 363.516 55.342V58.151H325.463C324.06 58.151 323.595 57.8327 323.595 56.7793V53.4703H330.552V39.1072H335.943V53.4703H342.91V33.4508H348.291V39.2416H357.6C359.003 39.2416 359.468 39.7173 359.468 41.1546V44.0707H348.291V53.46H361.669L361.648 53.4703Z" fill="#2D343D"/>
<path d="M410.142 53.373C411.538 53.373 412 53.8077 412 55.2462V58.151H371.858C370.462 58.151 370 57.8323 370 56.7778V53.373H382.745V23.651H388.419V53.373H393.772V23.651H399.446V53.373H410.142ZM381.027 46.7601H375.263L370.894 29.6533H376.659L381.027 46.7601ZM411.819 29.6533L407.451 46.7601H401.726L406.095 29.6533H411.819Z" fill="#2D343D"/>
<path d="M432.615 31.6257C433.92 31.6257 434.352 32.0888 434.352 33.4884V36.6602H424.263V39.6406H430.176C431.48 39.6406 431.912 40.1038 431.912 41.5034V57.6843H427.22V44.6751H424.263V46.3567C424.263 47.7059 424.179 48.733 423.916 49.8506L421.87 58.6208H417L419.13 49.5284C419.393 48.4108 419.562 47.4743 419.562 46.1251V24.5874H424.254V31.6257H427.126V23.651H431.818V31.6257H432.597H432.615ZM458 58.6308H452.172C450.915 56.909 449.648 55.1369 448.306 53.264C446.955 55.1268 445.697 56.899 444.393 58.6308H438.565C440.996 55.4591 443.22 52.3377 445.434 49.1659C444.477 47.7663 443.436 46.2761 442.394 44.6852C441.043 42.6815 440.827 41.6544 440.827 39.7413V37.9188H439.785V44.7255C439.785 46.0747 439.701 47.6153 439.391 49.1559C438.612 52.8411 437.955 55.9625 437.214 58.6208H432.259C433.263 54.8449 433.864 51.8544 434.689 47.8972C434.952 46.6386 434.99 45.5612 434.99 44.5442V26.7321C434.99 25.3325 435.421 24.8693 436.726 24.8693H449.986C452.116 24.8693 453.937 24.5471 456.639 23.8423V28.6956C454.462 29.3501 452.557 29.7729 450.333 29.7729H439.776V33.0857H453.993C455.297 33.0857 455.823 33.5488 455.823 34.9484V39.5198C455.823 41.6645 455.645 42.6915 454.34 44.6047C453.252 46.2358 452.21 47.7764 451.215 49.2263C453.392 52.3981 455.607 55.4792 458 58.651V58.6308ZM449.958 42.6311C450.783 41.4228 450.783 40.9999 450.783 39.8823V37.9289H445.875V39.8823C445.875 40.9999 445.922 41.4228 446.748 42.6311C447.274 43.4266 447.79 44.212 448.353 45.0074C448.878 44.212 449.395 43.4266 449.958 42.6311Z" fill="#2D343D"/>
</g>
<defs>
<linearGradient id="paint0_linear_722_1226" x1="20.6667" y1="7.33333" x2="39.714" y2="49.8791" gradientUnits="userSpaceOnUse">
<stop stop-color="#2C76DC"/>
<stop offset="1" stop-color="#04356C"/>
</linearGradient>
<clipPath id="clip0_722_1226">
<rect width="72.5" height="80" fill="white"/>
</clipPath>
<clipPath id="clip1_722_1226">
<rect width="363.96" height="38.57" fill="white" transform="translate(97 20.901)"/>
</clipPath>
</defs>
</svg>
